<?xml version="1.0" encoding="utf-8"?>
<!-- Generator: Adobe Illustrator 16.0.0, SVG Export Plug-In . SVG Version: 6.00 Build 0)  -->
<!DOCTYPE svg PUBLIC "-//W3C//DTD SVG 1.1//EN" "http://www.w3.org/Graphics/SVG/1.1/DTD/svg11.dtd">
<svg version="1.1" id="Layer_1" xmlns="http://www.w3.org/2000/svg" xmlns:xlink="http://www.w3.org/1999/xlink" x="0px" y="0px"
	 width="110px" height="110px" viewBox="0 0 110 110" enable-background="new 0 0 110 110" xml:space="preserve">
<rect x="0.088" y="0.189" fill="#B9B9B9" width="110" height="110"/>
<g>
	<g>
		<path fill="#B9B9B9" d="M88.556,55.224c-2.59-8.619-10.557-34.433-10.557-34.433L60.118,43.559h-5.024v-0.044h-5.025
			L32.189,20.748c0,0-7.968,25.813-10.558,34.433c-1.321,4.399-1.377,9.897-0.745,13.119c1.134,5.782,9.005,21.29,34.207,21.29l0,0
			v0.044h0.002c25.199,0,33.095-15.438,34.206-21.29C89.913,65.116,89.879,59.624,88.556,55.224z"/>
		<g>
			<path fill="#58595B" d="M55.096,92.532c-0.179,0-0.35-0.015-0.518-0.046c-25.257-0.204-34.942-15.511-36.537-23.628
				c-0.676-3.438-0.709-9.447,0.814-14.513c2.563-8.532,10.484-34.195,10.563-34.453c0.318-1.031,1.183-1.8,2.242-1.996
				c1.064-0.201,2.143,0.213,2.809,1.06l17.01,21.659h3.614c0.173,0,0.341,0.015,0.506,0.044h3.11L75.718,19
				c0.666-0.848,1.744-1.262,2.81-1.06c1.061,0.196,1.925,0.966,2.242,1.996c0.079,0.259,7.999,25.923,10.562,34.453
				c1.505,5,1.479,11.017,0.819,14.495C90.597,77.063,80.853,92.532,55.096,92.532z M33.328,26.894
				c-2.474,8.03-7.079,23.002-8.918,29.122c-1.171,3.895-1.224,8.948-0.678,11.725c0.037,0.19,4.035,18.948,31.361,18.948
				c0.168,0,0.332,0.014,0.493,0.042c27.001-0.222,30.828-18.74,30.865-18.928c0.55-2.894,0.494-7.857-0.676-11.744
				c-1.838-6.118-6.443-21.09-8.917-29.121L62.399,45.35c-0.55,0.7-1.391,1.108-2.281,1.108h-5.024
				c-0.173,0-0.342-0.014-0.506-0.043h-4.52c-0.891,0-1.731-0.409-2.281-1.109L33.328,26.894z"/>
			<g>
				<circle fill="#58595B" cx="41.572" cy="59.397" r="4.186"/>
				<circle fill="#58595B" cx="68.613" cy="59.398" r="4.186"/>
				<path fill="#58595B" d="M66.041,71.161c-1.087-0.518-2.384-0.055-2.898,1.029c-0.524,1.103-2.073,3.444-5.874,4.113V71.32
					l3.185-3.186c0.849-0.85,0.849-2.227-0.001-3.077c-0.851-0.848-2.226-0.848-3.074,0.002l-2.284,2.283l-2.282-2.283
					c-0.849-0.85-2.227-0.85-3.075,0c-0.851,0.849-0.851,2.226,0,3.075l3.183,3.185v4.972c-3.243-0.61-5.005-2.55-5.938-4.226
					c-0.584-1.049-1.908-1.425-2.959-0.841c-1.05,0.585-1.427,1.909-0.841,2.958c1.384,2.487,4.772,6.658,11.912,6.658
					c5.481,0,9.959-2.535,11.978-6.782C67.587,72.974,67.125,71.676,66.041,71.161z"/>
			</g>
		</g>
	</g>
</g>
</svg>
