<?xml version="1.0" encoding="utf-8"?>
<!-- Generator: Adobe Illustrator 16.0.0, SVG Export Plug-In . SVG Version: 6.00 Build 0)  -->
<!DOCTYPE svg PUBLIC "-//W3C//DTD SVG 1.1//EN" "http://www.w3.org/Graphics/SVG/1.1/DTD/svg11.dtd">
<svg version="1.1" id="Layer_1" xmlns="http://www.w3.org/2000/svg" xmlns:xlink="http://www.w3.org/1999/xlink" x="0px" y="0px"
	 width="360px" height="202px" viewBox="0 0 360 202" enable-background="new 0 0 360 202" xml:space="preserve">
<g>
	<rect fill="#B9B9B9" width="360" height="202"/>
	<g>
		<g>
			<path fill="#B9B9B9" d="M241.458,101.063c-4.756-15.827-19.386-63.23-19.386-63.23l-32.836,41.81h-9.227v-0.081h-9.229
				l-32.832-41.81c0,0-14.632,47.401-19.388,63.231c-2.427,8.078-2.528,18.175-1.368,24.091
				c2.082,10.618,16.536,39.097,62.816,39.097l0,0v0.081h0.004c46.274,0,60.773-28.35,62.814-39.097
				C243.951,119.229,243.888,109.144,241.458,101.063z"/>
			<g>
				<path fill="#58595B" d="M180.014,169.575c-0.328,0-0.643-0.027-0.951-0.085c-46.38-0.374-64.166-28.483-67.095-43.389
					c-1.241-6.313-1.302-17.349,1.495-26.652c4.706-15.669,19.253-62.796,19.398-63.269c0.585-1.895,2.172-3.306,4.117-3.666
					c1.955-0.369,3.935,0.391,5.158,1.946l31.236,39.773h6.637c0.317,0,0.626,0.027,0.929,0.081h5.712l31.232-39.774
					c1.224-1.557,3.203-2.316,5.159-1.945c1.948,0.36,3.535,1.773,4.118,3.665c0.145,0.476,14.688,47.604,19.395,63.269
					c2.764,9.182,2.715,20.232,1.505,26.618C245.206,141.169,227.313,169.575,180.014,169.575z M140.04,49.038
					c-4.542,14.747-13,42.24-16.377,53.479c-2.149,7.151-2.247,16.432-1.244,21.53c0.068,0.35,7.41,34.796,57.591,34.796
					c0.309,0,0.609,0.025,0.905,0.077c49.584-0.407,56.612-34.414,56.681-34.759c1.009-5.313,0.907-14.429-1.241-21.566
					c-3.375-11.234-11.833-38.73-16.375-53.477l-26.554,33.812c-1.01,1.285-2.554,2.035-4.189,2.035h-9.227
					c-0.317,0-0.628-0.025-0.929-0.079h-8.3c-1.636,0-3.18-0.751-4.189-2.037L140.04,49.038z"/>
				<g>
					<circle fill="#58595B" cx="155.178" cy="108.728" r="7.687"/>
					<path fill="#58595B" d="M204.837,101.041c-4.243,0-7.683,3.441-7.683,7.687s3.439,7.688,7.683,7.688
						c4.246,0,7.689-3.442,7.689-7.688S209.083,101.041,204.837,101.041z"/>
					<path fill="#58595B" d="M200.113,130.33c-1.996-0.951-4.378-0.101-5.323,1.89c-0.963,2.025-3.807,6.325-10.786,7.554v-9.151
						l5.848-5.85c1.559-1.561,1.559-4.089-0.002-5.651c-1.562-1.556-4.087-1.556-5.646,0.004l-4.194,4.193l-4.191-4.193
						c-1.558-1.56-4.088-1.56-5.646,0c-1.563,1.559-1.563,4.087,0,5.647l5.844,5.848v9.13c-5.955-1.121-9.19-4.683-10.903-7.76
						c-1.072-1.926-3.504-2.616-5.434-1.544c-1.928,1.074-2.62,3.506-1.544,5.432c2.541,4.568,8.764,12.228,21.875,12.228
						c10.066,0,18.288-4.655,21.995-12.455C202.952,133.658,202.104,131.274,200.113,130.33z"/>
				</g>
			</g>
		</g>
	</g>
</g>
</svg>
