<?xml version="1.0" encoding="utf-8"?>
<!-- Generator: Adobe Illustrator 16.0.0, SVG Export Plug-In . SVG Version: 6.00 Build 0)  -->
<!DOCTYPE svg PUBLIC "-//W3C//DTD SVG 1.1//EN" "http://www.w3.org/Graphics/SVG/1.1/DTD/svg11.dtd">
<svg version="1.1" id="Layer_1" xmlns="http://www.w3.org/2000/svg" xmlns:xlink="http://www.w3.org/1999/xlink" x="0px" y="0px"
	 width="110px" height="110px" viewBox="0 0 110 110" enable-background="new 0 0 110 110" xml:space="preserve">
<rect x="-0.063" fill="#B9B9B9" width="110" height="110"/>
<g>
	<path fill="#996A52" d="M74.224,25.452v7.744c-2.385-1.315-5.125-2.065-8.041-2.065H44.09c-3.08,0-5.962,0.838-8.438,2.294v-7.973
		H14.979v26.036h8.164c1.501,0,2.936-0.279,4.271-0.765v2.641c0,8.024,5.671,14.725,13.223,16.313v9.457
		c0,5.749,5.565,10.41,12.428,10.41h4.143c6.863,0,12.428-4.661,12.428-10.41v-9.457c7.552-1.589,13.224-8.289,13.224-16.313v-2.495
		c1.221,0.397,2.521,0.619,3.875,0.619h8.163V25.452H74.224z"/>
	<circle fill="#593829" cx="41.449" cy="55.188" r="4.186"/>
	<circle fill="#593829" cx="68.492" cy="55.188" r="4.187"/>
	<path fill="#593829" d="M94.896,22.553H74.224c-1.603,0-2.9,1.299-2.9,2.899v3.469c-1.64-0.449-3.363-0.688-5.142-0.688H44.091
		c-1.921,0-3.779,0.282-5.539,0.802v-3.583c0-1.601-1.297-2.899-2.899-2.899H14.979c-1.602,0-2.9,1.299-2.9,2.899v26.036
		c0,1.601,1.299,2.9,2.9,2.9h8.164c0.476,0,0.945-0.029,1.411-0.071c0.396,8.006,5.696,14.987,13.187,17.56v7.258
		c0,7.337,6.871,13.312,15.324,13.312h4.141c8.454,0,15.328-5.975,15.328-13.312v-7.258c7.481-2.57,12.78-9.542,13.184-17.54
		c0.337,0.021,0.673,0.052,1.016,0.052h8.163c1.603,0,2.9-1.3,2.9-2.9V25.452C97.797,23.852,96.499,22.553,94.896,22.553z
		 M17.878,48.589V28.353h14.875v10.625c0,5.299-4.311,9.611-9.609,9.611H17.878z M79.957,53.362c0,6.481-4.59,12.143-10.919,13.477
		c-1.341,0.284-2.305,1.465-2.305,2.843v9.453c0,3.92-3.829,7.145-8.696,7.478v-5.374h1.895c1.602,0,2.899-1.298,2.899-2.9
		c0-1.602-1.298-2.899-2.899-2.899h-9.063c-1.601,0-2.899,1.298-2.899,2.899c0,1.603,1.299,2.9,2.899,2.9h1.369v5.374
		c-4.867-0.333-8.697-3.558-8.697-7.478v-9.453c0-1.378-0.964-2.559-2.306-2.843c-6.329-1.334-10.918-6.995-10.918-13.477v-0.756
		c4.892-2.586,8.235-7.723,8.235-13.629v-3.779c1.697-0.748,3.572-1.165,5.539-1.165h22.091c1.818,0,3.552,0.359,5.142,1.003v3.941
		c0,6.063,3.528,11.307,8.634,13.819V53.362z M91.997,48.589h-5.264c-5.299,0-9.611-4.313-9.611-9.611V28.353h14.875V48.589z"/>
</g>
</svg>
