<?xml version="1.0" encoding="utf-8"?>
<!-- Generator: Adobe Illustrator 16.0.0, SVG Export Plug-In . SVG Version: 6.00 Build 0)  -->
<!DOCTYPE svg PUBLIC "-//W3C//DTD SVG 1.1//EN" "http://www.w3.org/Graphics/SVG/1.1/DTD/svg11.dtd">
<svg version="1.1" id="Layer_1" xmlns="http://www.w3.org/2000/svg" xmlns:xlink="http://www.w3.org/1999/xlink" x="0px" y="0px"
	 width="360px" height="202px" viewBox="0 0 360 202" enable-background="new 0 0 360 202" xml:space="preserve">
<g>
	<rect fill="#B9B9B9" width="360" height="202"/>
	<g>
		<path fill="#996A52" d="M215.415,46.739V60.96c-4.379-2.415-9.411-3.792-14.766-3.792h-40.57c-5.656,0-10.948,1.538-15.494,4.212
			V46.739h-37.963v47.812h14.992c2.756,0,5.391-0.513,7.842-1.403v4.849c0,14.735,10.414,27.04,24.281,29.958v17.366
			c0,10.558,10.221,19.116,22.822,19.116h7.607c12.604,0,22.822-8.559,22.822-19.116v-17.366
			c13.867-2.918,24.283-15.223,24.283-29.958v-4.582c2.241,0.73,4.63,1.137,7.115,1.137h14.99V46.739H215.415z"/>
		<path fill="#593829" d="M162.916,101.346c0,4.243-3.445,7.687-7.688,7.687c-4.244,0-7.684-3.443-7.684-7.687
			c0-4.244,3.439-7.684,7.684-7.684C159.471,93.662,162.916,97.102,162.916,101.346z"/>
		<path fill="#593829" d="M212.579,101.346c0,4.243-3.443,7.687-7.69,7.687c-4.243,0-7.687-3.443-7.687-7.687
			c0-4.244,3.443-7.684,7.687-7.684C209.136,93.662,212.579,97.102,212.579,101.346z"/>
		<path fill="#593829" d="M253.378,41.415h-37.963c-2.942,0-5.326,2.385-5.326,5.324v6.37c-3.011-0.825-6.176-1.263-9.441-1.263
			h-40.566c-3.527,0-6.94,0.519-10.172,1.473v-6.58c0-2.939-2.382-5.324-5.324-5.324h-37.963c-2.941,0-5.326,2.385-5.326,5.324
			v47.812c0,2.939,2.385,5.326,5.326,5.326h14.992c0.873,0,1.735-0.054,2.591-0.131c0.727,14.702,10.461,27.522,24.216,32.246
			v13.328c0,13.473,12.617,24.444,28.141,24.444h7.604c15.525,0,28.148-10.972,28.148-24.444v-13.328
			c13.738-4.72,23.469-17.522,24.209-32.21c0.619,0.039,1.236,0.095,1.865,0.095h14.99c2.943,0,5.326-2.387,5.326-5.326V46.739
			C258.704,43.8,256.321,41.415,253.378,41.415z M111.944,89.227V52.065h27.316v19.512c0,9.73-7.916,17.649-17.646,17.649H111.944z
			 M225.944,97.992c0,11.902-8.429,22.299-20.051,24.748c-2.463,0.522-4.232,2.69-4.232,5.221v17.359
			c0,7.198-7.032,13.12-15.97,13.731v-9.869h3.479c2.941,0,5.325-2.383,5.325-5.326c0-2.94-2.384-5.324-5.325-5.324h-16.644
			c-2.939,0-5.324,2.384-5.324,5.324c0,2.943,2.385,5.326,5.324,5.326h2.515v9.869c-8.938-0.611-15.972-6.533-15.972-13.731v-17.359
			c0-2.53-1.77-4.698-4.234-5.221c-11.622-2.449-20.049-12.846-20.049-24.748v-1.388c8.982-4.749,15.123-14.182,15.123-25.027v-6.94
			c3.117-1.374,6.56-2.14,10.172-2.14h40.566c3.34,0,6.522,0.66,9.441,1.842v7.238c0,11.135,6.479,20.763,15.855,25.377V97.992z
			 M248.054,89.227h-9.666c-9.73,0-17.649-7.919-17.649-17.649V52.065h27.315V89.227z"/>
	</g>
</g>
</svg>
