<?xml version="1.0" encoding="utf-8"?>
<!-- Generator: Adobe Illustrator 16.0.0, SVG Export Plug-In . SVG Version: 6.00 Build 0)  -->
<!DOCTYPE svg PUBLIC "-//W3C//DTD SVG 1.1//EN" "http://www.w3.org/Graphics/SVG/1.1/DTD/svg11.dtd">
<svg version="1.1" id="Layer_1" xmlns="http://www.w3.org/2000/svg" xmlns:xlink="http://www.w3.org/1999/xlink" x="0px" y="0px"
	 width="32px" height="32px" viewBox="259 259 32 32" enable-background="new 259 259 32 32" xml:space="preserve">
<g>
	<g>
		<rect x="259" y="259" fill="#4CD374" width="32" height="32"/>
	</g>
	<g>
		<g>
			<path fill="#FF8900" d="M287.125,284.123l-0.294-0.294l-1.401-1.402l-2.45-2.45c1.062-1.485,1.696-3.184,1.901-4.923
				c0.117-0.985,0.098-1.983-0.061-2.963c-0.342-2.134-1.334-4.183-2.976-5.825c-2.011-2.012-4.683-3.12-7.527-3.12
				c-2.844,0-5.518,1.108-7.53,3.12c-1.333,1.333-2.238,2.935-2.714,4.632h3.181c0.425-0.893,1.115-1.616,1.952-2.087
				c0.021-0.022,0.042-0.044,0.064-0.066c1.348-1.347,3.141-2.09,5.046-2.09c1.741,0,3.387,0.62,4.687,1.755
				c0.124,0.107,0.243,0.22,0.36,0.337c2.783,2.783,2.782,7.311-0.001,10.092h0.001c-0.001,0.002-0.002,0.002-0.002,0.002
				c-1.105,1.105-2.485,1.771-3.923,1.998c-2.108,0.333-4.338-0.278-5.999-1.834l-2.222-0.001c-0.947,0-1.83-0.277-2.571-0.757
				c0.511,1.114,1.225,2.157,2.141,3.074c2.086,2.086,4.83,3.123,7.571,3.11c0.72-0.003,1.441-0.077,2.148-0.226
				c1.386-0.289,2.725-0.856,3.926-1.701c0.022-0.016,0.045-0.031,0.066-0.047l0.047,0.047l2.984,2.985l1.115,1.114
				c0.115,0.115,0.241,0.211,0.377,0.287c0.668,0.379,1.533,0.284,2.104-0.287C287.811,285.92,287.811,284.809,287.125,284.123z"/>
		</g>
		<g>
			<path fill="#FFFFFF" d="M279.362,278.838L279.362,278.838c0,0.002-0.001,0.002-0.001,0.002c-0.67,0.67-1.441,1.18-2.266,1.526
				l0.961-2.062l-10.839-0.003c-2.24,0-4.057-1.816-4.057-4.057v-2.647h4.562c0.55-1.57,2.044-2.696,3.803-2.696h5.461
				c1.03,0,2.021,0.171,2.945,0.485C282.131,272.185,281.94,276.261,279.362,278.838z"/>
			<path fill="#FFFFFF" d="M280.498,282.457l0.047,0.047h-0.113C280.454,282.488,280.477,282.473,280.498,282.457z"/>
			<path fill="#363636" d="M280.498,282.457c-0.021,0.016-0.044,0.031-0.066,0.047h0.113L280.498,282.457z M279.932,269.387
				c-0.174-0.222-0.363-0.436-0.568-0.641c-0.117-0.117-0.236-0.23-0.36-0.337l-0.001,0c-0.65-0.136-1.324-0.208-2.016-0.208l0,0
				h-5.461c-0.831,0-1.626,0.218-2.319,0.608c-0.12,0.067-0.237,0.141-0.351,0.219c-0.017,0.011-0.034,0.022-0.051,0.035
				c-0.018,0.012-0.036,0.025-0.053,0.038c-0.025,0.018-0.048,0.036-0.072,0.054s-0.048,0.036-0.072,0.055
				c-0.006,0.004-0.012,0.009-0.018,0.014c-0.037,0.029-0.073,0.059-0.109,0.089c-0.052,0.044-0.104,0.089-0.154,0.136
				c-0.021,0.018-0.041,0.037-0.06,0.056c-0.022,0.021-0.043,0.042-0.065,0.063c-0.021,0.021-0.042,0.042-0.063,0.064
				c-0.022,0.021-0.042,0.043-0.063,0.065c-0.018,0.019-0.037,0.039-0.054,0.059c-0.14,0.154-0.27,0.318-0.389,0.49
				c-0.013,0.02-0.027,0.039-0.04,0.059c-0.008,0.011-0.015,0.022-0.022,0.034c-0.017,0.025-0.033,0.051-0.049,0.076
				c-0.019,0.029-0.037,0.058-0.054,0.088c-0.013,0.021-0.025,0.043-0.039,0.066c-0.062,0.107-0.12,0.217-0.173,0.33h-4.093
				c-0.387,0-0.701,0.314-0.701,0.701v2.647c0,1.677,0.872,3.154,2.187,4.001c0.092,0.061,0.188,0.117,0.285,0.17
				c0.022,0.013,0.044,0.025,0.067,0.037c0.018,0.01,0.037,0.02,0.055,0.028c0.033,0.017,0.066,0.033,0.1,0.05
				c0.028,0.014,0.057,0.027,0.085,0.04c0.018,0.009,0.036,0.017,0.055,0.024c0.063,0.028,0.126,0.055,0.191,0.08
				c0.033,0.014,0.066,0.025,0.099,0.038c0.037,0.013,0.073,0.026,0.11,0.039c0,0,0,0.001,0.001,0.001
				c0.037,0.012,0.073,0.023,0.11,0.035c0.037,0.012,0.075,0.022,0.112,0.033c0.037,0.011,0.075,0.021,0.113,0.031
				c0.038,0.01,0.076,0.019,0.114,0.027c0.03,0.007,0.06,0.014,0.089,0.02c0.053,0.012,0.105,0.021,0.158,0.03
				c0.03,0.006,0.06,0.011,0.089,0.015c0.007,0.002,0.013,0.003,0.02,0.004c0.035,0.006,0.071,0.01,0.105,0.015
				c0.002,0,0.005,0.001,0.006,0.001c0.038,0.005,0.076,0.01,0.114,0.014c0.004,0,0.007,0,0.012,0
				c0.038,0.004,0.076,0.008,0.114,0.011c0.04,0.003,0.081,0.006,0.121,0.007c0.04,0.003,0.081,0.004,0.122,0.006
				c0.041,0,0.082,0.001,0.123,0.001l2.222,0.001l5.033,0.001c0.185,0.685,0.52,1.308,0.966,1.833
				c0.566-0.09,1.123-0.246,1.658-0.472c0.824-0.347,1.596-0.856,2.266-1.526c0,0,0.001,0,0.002-0.002h-0.001
				C281.94,276.261,282.131,272.185,279.932,269.387z M263.861,273.675l1.376-1.376h2.485c0.297,0,0.563-0.188,0.662-0.469
				c0.466-1.332,1.729-2.227,3.141-2.227h2.783v8.001l-7.091-0.002c-1.851,0-3.356-1.506-3.356-3.356V273.675L263.861,273.675z"/>
			<path fill="#363636" d="M272.635,272.396c0-0.763-0.619-1.382-1.382-1.382s-1.382,0.619-1.382,1.382s0.619,1.382,1.382,1.381
				C272.016,273.777,272.635,273.159,272.635,272.396z"/>
		</g>
	</g>
</g>
</svg>
